# xmcd
#
# Track frame offsets: 
#        150
#        15357
#        34395
#        50430
#        67737
#        82800
#        100725
#        114350
#        134250
#        151650
#        176925
#        188775
#
# Disc length: 2770 seconds
#
# Revision: 2
# Processed by: cddbd v1.5.2PL0 Copyright (c) Steve Scherf et al.
# Submitted via: ExactAudioCopy v0.99pb4
#
DISCID=8a0ad00c
DTITLE=Morton Gould - Blues in the Night - RCA Living Stereo 1996
DYEAR=1996
DGENRE=
TTITLE0=Blues in the Night
TTITLE1=Birth of the Blues
TTITLE2=Solitude
TTITLE3=That Old Devil Moon
TTITLE4=Nocturne
TTITLE5=Limehouse Blues
TTITLE6=Mood Indigo
TTITLE7=St. Louis Blues
TTITLE8=Sophisticated Lady
TTITLE9=Big City Blues
TTITLE10=Moonglow
TTITLE11=Deep Purple
EXTD=
EXTT0=
EXTT1=
EXTT2=
EXTT3=
EXTT4=
EXTT5=
EXTT6=
EXTT7=
EXTT8=
EXTT9=
EXTT10=
EXTT11=
PLAYORDER=
